<svg xmlns="http://www.w3.org/2000/svg" width="256" height="256"><path d="M136.07 139.926l32.439-26.129 6.326 37.765z" fill="#e24b27"/><path d="M135.376 93.96l33.133 19.838-32.439 26.129z" fill="#db3a1e"/><path d="M135.376 93.96l.694 45.966-29.753-26.016z" fill="#c32113"/><path d="M106.316 113.91l-24.118 36.435 53.871-10.419z" fill="#a9150e"/><path d="M82.198 150.345l53.871-10.419-26.546 37.498z" fill="#900e0b"/><path d="M136.07 139.926l-26.546 37.498 28.423 16.585z" fill="#b0180f"/><path d="M136.07 139.926l38.765 11.636-15.922 27.009z" fill="#c92414"/><path d="M136.07 139.926l22.843 38.645-20.965 15.437z" fill="#bf1f12"/><path d="M174.835 151.562l20.172 31.604-36.094-4.595z" fill="#c22414"/><path d="M168.509 113.797l33.321 25.78-26.994 11.985z" fill="#f07041"/><path d="M168.509 113.797l5.81-29.869 37.468 22.827z" fill="#f37745"/><path d="M174.319 83.929l31.862-5.532 5.605 28.359z" fill="#ed6033"/><path d="M206.181 78.397l21.868 25.372-16.263 2.987z" fill="#e23e1c"/><path d="M211.786 106.756l16.263-2.987 8.703 33.927z" fill="#da3319"/><path d="M211.786 106.756l24.966 30.94-14.677 14.899z" fill="#d52b18"/><path d="M236.753 137.696l-14.677 14.899 10.473 24.671z" fill="#c72919"/><path d="M222.075 152.595l-8.777 41.192 19.25-16.521z" fill="#d2341b"/><path d="M213.298 193.787l19.25-16.521-17.554 37.394z" fill="#db5f33"/><path d="M213.298 193.787l-22.68 27.953 24.376-7.081z" fill="#df6628"/><path d="M190.619 221.741l24.376-7.081-25.04 28.543z" fill="#e38c41"/><path d="M190.619 221.741l-28.47 19.139 27.806 2.323z" fill="#e3983e"/><path d="M162.149 240.88l27.806 2.323L158.719 256z" fill="#c9742f"/><path d="M162.149 240.88l-37.394 6.896L158.719 256z" fill="#99471b"/><path d="M124.755 247.776l-17.259 7.597 51.223.627z" fill="#86391d"/><path d="M124.755 247.776l-17.259 7.597-13.276-19.066z" fill="#792f1b"/><path d="M94.221 236.307l-8.4 9.541 21.676 9.525z" fill="#662a1e"/><path d="M65.429 218.26l28.792 18.048-8.4 9.541z" fill="#63281f"/><path d="M65.429 218.26l-6.389 7.759 26.781 19.83z" fill="#4d2624"/><path d="M65.429 218.26l-6.389 7.759-19.398-33.116z" fill="#482c2a"/><path d="M44.399 176.418l-4.757 16.484 25.787 25.357z" fill="#422323"/><path d="M29.906 156.32l14.493 20.098-4.757 16.484z" fill="#462929"/><path d="M49.082 138.508L29.906 156.32l14.493 20.098z" fill="#421f20"/><path d="M32.524 122.06l16.558 16.447-19.176 17.812z" fill="#461f21"/><path d="M57.601 96.799L32.524 122.06l16.558 16.447z" fill="#4e1b1d"/><path d="M57.601 96.799L32.524 122.06l16.079-31.53z" fill="#522524"/><path d="M48.603 90.53l26.404-20.025-17.406 26.294z" fill="#5d2120"/><path d="M57.601 96.799l17.406-26.294 17.369 12.76z" fill="#8e100e"/><path d="M75.007 70.505l32.747 5.274-15.378 7.486z" fill="#9e1c16"/><path d="M75.007 70.505l29.945-5.827 2.803 11.1z" fill="#94201b"/><path d="M104.952 64.679l2.803 11.1 8.924-4.388-7.117-6.638z" fill="#8c1410"/><path d="M107.755 75.779l8.924-4.388 13.165 8.187-.996 3.503z" fill="#84110f"/><path d="M109.562 64.753l14.788.295 6.712 11.358-1.217 3.171-13.165-8.187z" fill="#a21a11"/><path d="M107.755 75.779l21.094 7.302 6.527 10.879-42.999-10.695z" fill="#c72414"/><path d="M92.377 83.265l42.999 10.695-29.06 19.951z" fill="#b51a11"/><path d="M92.377 83.265l-17.775 25.409 31.715 5.237z" fill="#a6140f"/><path d="M92.377 83.265L57.601 96.799l17.001 11.875z" fill="#830d0c"/><path d="M57.601 96.799l17.001 11.875-25.519 29.834z" fill="#6c0a0c"/><path d="M74.602 108.674l7.597 41.672-33.116-11.838z" fill="#6d090a"/><path d="M74.602 108.674l31.715 5.237-24.118 36.435z" fill="#9e120e"/><path d="M49.082 138.508l33.116 11.838-11.69 33.964z" fill="#550509"/><path d="M82.198 150.345l27.325 27.078-39.016 6.886z" fill="#70090a"/><path d="M49.082 138.508l-4.683 37.91 26.109 7.892z" fill="#3f0f12"/><path d="M44.399 176.418l26.109 7.892-5.08 33.95z" fill="#411719"/><path d="M70.508 184.31l27.437 28.801-32.516 5.148z" fill="#5d0f11"/><path d="M70.508 184.31l39.016-6.886-11.579 35.687z" fill="#800f0c"/><path d="M97.945 213.111l-32.516 5.148 28.792 18.048z" fill="#6c1b12"/><path d="M97.945 213.111l26.81 34.665-30.535-11.469z" fill="#8d2f13"/><path d="M97.945 213.111l40.049 12.686-13.239 21.979z" fill="#a33b15"/><path d="M137.947 194.009l-40.002 19.103 40.049 12.686z" fill="#aa2410"/><path d="M109.524 177.424l28.423 16.585-40.002 19.103z" fill="#9b160d"/><path d="M137.947 194.009l30.877 17.074-30.83 14.714z" fill="#c43014"/><path d="M168.824 211.083l-30.83 14.714 24.155 15.083z" fill="#cb5b1e"/><path d="M137.994 225.797l-13.239 21.979 37.394-6.896z" fill="#b14e1b"/><path d="M158.913 178.571l-20.965 15.437 30.877 17.074z" fill="#bf2312"/><path d="M158.913 178.571l36.094 4.595-26.183 27.916z" fill="#cc3117"/><path d="M168.824 211.083l21.795 10.658-28.47 19.139z" fill="#da7027"/><path d="M195.007 183.167l-26.183 27.916 21.795 10.658z" fill="#db531f"/><path d="M195.007 183.167l18.291 10.621-22.68 27.953z" fill="#d63d1a"/><path d="M195.007 183.167l27.068-30.572-8.777 41.192z" fill="#bb2213"/><path d="M201.829 139.577l20.246 13.018-27.068 30.572z" fill="#d73019"/><path d="M174.835 151.562l26.994-11.985-6.822 43.589z" fill="#dd3d1d"/><path d="M168.509 113.797l43.278-7.041-9.957 32.821z" fill="#f6945c"/><path d="M211.786 106.756l10.289 45.839-20.246-13.018z" fill="#e55026"/><path d="M135.376 93.96l38.943-10.031-5.81 29.869z" fill="#e34b26"/><path d="M174.319 83.929l31.862-5.532-28.433-13.276z" fill="#e84e24"/><path d="M155.548 75.189l22.2-10.068-3.43 18.808z" fill="#d43118"/><path d="M155.548 75.189l-12.686 8.15-7.486 10.621 38.943-10.031z" fill="#c52816"/><path d="M128.849 83.081l14.013.258-7.486 10.621z" fill="#bb2817"/><path d="M140.059 75.189l-3.436 8.035 6.239.115 12.686-8.15z" fill="#931912"/><path d="M143.046 64.421l7.892.184-10.879 10.584z" fill="#c6351a"/><path d="M150.938 64.605l4.61 10.584h-15.489z" fill="#b32214"/><path d="M150.938 64.605l26.81.516-22.2 10.068z" fill="#bd2615"/><path d="M135.044 73.013l3.879 4.834-2.3 5.377-3.904-.072z" fill="#612d1a"/><path d="M128.849 83.081l3.871.071 2.325-10.139-3.983 3.393-1.217 3.171z" fill="#301a14"/><path d="M135.044 73.013l-4.776-7.929-1.595 7.281 2.388 4.04z" fill="#341810"/><path d="M128.674 72.365l-4.324-7.318-1.918-3.466 4.72-1.401 3.116 4.905z" fill="#291811"/><path d="M135.044 73.013l7.597-27.345-8.722.148-3.651 19.269z" fill="#462816"/><path d="M135.044 73.013l7.597-27.345 4.694 2.834-4.288 15.918-2.987 10.768-1.137 2.658z" fill="#7f381d"/><path d="M142.641 45.668l25.667-17.498-20.973 20.332z" fill="#83391f"/><path d="M142.641 45.668l6.785-14.622 18.881-2.876z" fill="#5e2718"/><path d="M149.426 31.046l9.699-8.924 9.183 6.048z" fill="#6a2b19"/><path d="M159.125 22.122l7.56-6.232 1.623 12.28z" fill="#994520"/><path d="M159.125 22.122l7.56-6.232-14.972.738z" fill="#7a351d"/><path d="M151.713 16.627l7.412 5.495-9.699 8.924z" fill="#4e2319"/><path d="M151.713 16.627l-2.286 14.419-7.117.184z" fill="#3c1e19"/><path d="M149.426 31.046l-15.507 14.769 8.722-.148z" fill="#3c1f19"/><path d="M142.309 31.231l7.117-.184-15.507 14.769z" fill="#3e2019"/><path d="M127.152 60.18l-4.929-8.314-4.042 2.477 4.251 7.238z" fill="#42361b"/><path d="M92.835 30.509l25.346 23.834-42.139-3.755z" fill="#2d4f26"/><path d="M122.223 51.866l-18.801-35.855-10.587 14.498 25.346 23.834z" fill="#587f2a"/><path d="M92.835 30.509l10.587-14.498L75.625 0z" fill="#5f872c"/><path d="M92.835 30.509L76.042 50.588 57.423 39.532z" fill="#39602f"/><path d="M92.835 30.509l-35.412 9.022-1.304-19.818z" fill="#365c2d"/><path d="M56.119 19.714l1.304 19.818-12.934-8.24z" fill="#385e2f"/><path d="M19.247 9.388l36.872 10.326-11.63 11.578z" fill="#1c4620"/><path d="M19.247 9.388l30.04-4.955 6.832 15.281z" fill="#365e2c"/><path d="M49.287 4.433L75.625 0 56.119 19.714z" fill="#3e672a"/><path d="M75.625 0l17.21 30.509-36.716-10.796z" fill="#4e782c"/></svg>
